<?xml version="1.0" standalone="no"?><!DOCTYPE svg PUBLIC "-//W3C//DTD SVG 1.1//EN" "http://www.w3.org/Graphics/SVG/1.1/DTD/svg11.dtd"><svg t="1772810201483" class="icon" viewBox="0 0 1536 1024" version="1.1" xmlns="http://www.w3.org/2000/svg" p-id="6858" xmlns:xlink="http://www.w3.org/1999/xlink" width="300" height="200"><path d="M1534.424369 643.737124c-73.710724-56.626728-222.027962-334.129688-269.376865-388.388971 0 10.173616-9.277826 11.325346-15.548355 14.524596-25.210091 12.541061-51.251988 23.354526-76.71802 35.319722-33.272202 15.484371-55.730938 40.310552-35.639647 81.708849 0.89579 1.79158 0.63985 3.8391 0.895791 5.566695-1.79158 10.813466-10.493541 15.996251-18.555652 20.987081-24.314301 14.908506-50.996048 24.570241-78.829524 29.497087-26.361821 4.99083-53.107553 9.917676-80.301179 9.917676-8.9579-0.575865-17.979786 0-25.210092-6.398501-20.923096-27.129641-37.751152-57.202593-53.619433-87.275545-12.860986-24.506256-29.944982-35.319722-59.314098-34.167991-47.348903 2.367445-94.953745 0.89579-142.302648 0.319925-17.083996 0-32.376412 3.8391-47.092962 11.64527-54.515223 29.817012-109.926236 58.098383-164.185519 88.427275a85.100055 85.100055 0 0 1-60.529814 9.597751 26.169866 26.169866 0 0 1-15.292415-14.844521c0-2.04752 0-3.775115 0.63985-5.50271 16.444146-43.189877 8.9579-61.297633-32.632352-82.3487-28.153402-13.948731-57.586503-25.594001-86.05983-39.350777-32.632352-15.804296-65.264704-5.88662-83.564414 25.082121-37.175287 62.705303-71.919144 126.946247-108.134656 190.291401-21.051066 36.471452-40.502507 73.582754-62.385379 109.414356-23.674451 38.838897-26.937686 67.184254 32.056487 93.674045 25.210091 11.389331 49.780333 23.930391 74.862454 34.743857 32.440397 14.012716 61.425603 13.436851 86.05983-14.012716 1.215715-1.471655 3.263235-2.04752 5.1188-2.623385 4.73489-1.15173 8.9579 0.63985 13.180911 2.623385 35.639647 18.939561 73.070874 34.743857 107.494806 55.730938a18.555651 18.555651 0 0 1 6.65444 11.709256c4.159025 30.648817 25.785956 42.550027 53.939358 47.284917 17.915801 6.65444 36.535437-0.63985 54.835148 1.40767 5.37474 2.04752 8.9579 6.14256 9.277825 11.389331 2.68737 27.449567 21.882871 40.310552 45.237398 49.908303 20.091291 10.237601 40.758447 9.08587 62.065453 5.24677 4.73489 1.15173 5.37474 4.670905 5.630681 8.765945 3.32722 39.414762 14.716551 51.635898 54.579208 58.674249 31.160697 8.44602 58.098383 1.15173 81.452909-20.155276 8.44602 0 8.9579 6.3985 9.341811 11.709255 1.79158 22.714676 16.764071 34.104007 36.471452 41.974163 26.105881 9.08587 47.348903 0 67.184253-16.316176 8.06211-7.03835 13.756776-17.531891 26.361822-18.683621 14.716551 8.19008 28.793252 18.363696 47.348902 15.74031 32.632352-3.45519 42.550027-17.211966 41.334313-56.626728 0.89579-2.879325 3.007295-4.60692 6.01459-5.50271 10.493541 0 15.548356 8.44602 22.458736 14.268656 15.292416 12.860986 31.480622 21.307006 52.147778 13.756776 23.034601-8.510005 31.480622-20.475201 30.840772-44.149653 0-5.50271-2.367445-11.645271 4.798875-14.524596 14.076701 2.04752 28.793252 6.718425 41.974162-2.623385 9.277826-5.566695 16.444146-12.797001 22.778662-21.051066 7.486245-9.597751 6.846395-19.835351 2.367445-30.584832-6.01459-14.908506-3.8391-17.531891 11.965195-13.18091 17.403921 4.670905 30.264907-1.471655 43.765743-11.389331 22.202796-16.636101 20.091291-36.471452 10.49354-58.034398 6.590455-13.756776 21.562946-16.060236 32.952277-22.202796 28.473327-15.164446 56.050863-32.376412 87.787425-41.398298 5.37474 1.15173 8.382035 5.50271 12.285121 8.957901 17.659861 16.124221 38.071077 22.842646 61.425603 14.908506 40.182582-13.692791 77.613809-33.848067 115.684886-52.211763 8.31805-4.09504 13.436851-11.645271 18.875576-18.939561 3.58316-4.670905 4.798875-12.605046 13.756776-11.389331l0.89579-0.89579z" fill="#FFFFFF" p-id="6859"></path><path d="M1534.424369 643.737124c-13.436851 27.705507-38.966867 40.822432-66.224478 52.211763-21.562946 9.08587-42.550027 19.579411-64.112974 29.241147-38.646942 17.467906-64.688839 11.325346-91.69051-20.731142-8.70196-5.566695-12.605046-14.588581-17.339936-22.778661-42.869952-74.990424-84.204265-150.620698-127.650082-225.291197-8.70196-21.882871-27.577537-39.094837-30.264907-63.601094-22.778661-42.038147-13.500836-69.487714 29.944982-90.474795 32.632352-15.804296 67.120269-28.345357 98.280966-47.348902 14.076701-6.078575 19.451441-9.597751 34.167991-9.597751 20.667156 4.670905 43.125892 27.769492 53.043568 45.237398 56.626728 98.34495 111.461876 197.905616 168.088605 296.250566 6.91038 11.645271 10.749481 24.506256 14.0767 37.303257 0.63985 6.14256 1.79158 13.756776 0 19.259486l-0.319925 0.319925z" fill="#4D34EC" p-id="6860"></path><path d="M1136.821557 392.78794c11.389331 20.667156 22.778661 41.142357 33.912052 61.809514 11.325346 30.072952 26.617761 58.098383 39.478747 87.275545 19.195501 43.509802 39.286792 86.379755 58.162369 130.145497 9.597751 22.202796 8.31805 25.146106-13.436851 35.639647-21.051066 10.493541-41.078372 23.034601-62.705304 32.376411-7.16632 3.19925-14.076701 7.29429-22.138811 6.718426-5.37474-0.63985-9.917676-2.94331-14.972491-4.990831-31.160697-12.221136-62.321393 5.310755-67.184253 37.943108-3.19925 21.882871-3.8391 22.522721-23.930392 12.605045-21.243021-10.557526-38.071077-3.519175-53.363492 11.069406-13.436851 8.765945-13.180911 23.354526-16.124221 36.791377-5.438725 8.44602-11.709256 2.879325-16.828056 0-18.555651-9.917676-36.215512-9.341811-53.619433 1.983535-8.9579 5.566695-13.436851 14.076701-16.764071 23.674451-6.27053 22.458736-10.813466 26.553776-34.487917 28.857237-11.965196 1.215715-22.714676 4.414965-31.736562 12.860986-13.436851 13.756776-10.813466 30.072952-8.70196 46.709052-18.299711 29.177162-39.222807 55.155073-74.286589 66.224479-29.049192-8.126095-41.078372-28.857237-43.509803-56.626728 6.01459-17.467906 21.626931-27.705507 33.272202-40.822433 10.877451-11.965196 20.987081-24.826181 32.376412-36.471452a25.849941 25.849941 0 0 0 7.80617-15.164445c0.63985-5.566695-0.89579-10.557526-6.01459-13.180911-5.950605-3.45519-9.853691 0.63985-13.436851 4.670905-27.257611 32.120472-56.306803 62.769288-84.204264 94.313895-13.820761 15.740311-29.049192 29.753027-52.723643 28.857237-39.862657-1.15173-59.378083-23.930391-59.378084-69.743654-0.575865-4.670905 2.751355-7.03835 5.438726-9.59775 41.014387-37.943107 75.502304-81.772834 112.037741-123.491057 5.75865-6.718425 12.285121-12.797001 2.68737-20.987081-9.853691-8.510005-16.188206-2.04752-22.778661 5.24677-35.639647 39.414762-69.167789 80.557119-104.295556 120.227822-15.228431 17.275951-32.632352 27.129641-56.562743 25.402046-32.056487-8.44602-48.884543-29.177162-51.827853-60.977708 6.52647-19.579411 22.714676-33.016262 36.215512-47.028978 41.078372-42.294087 78.829524-87.85141 117.476467-132.193017 5.694665-6.3985 18.875576-14.268656 8.31805-23.674452-9.213841-8.126095-18.555651 2.68737-24.826181 9.085871-23.930391 24.826181-46.453113 50.548153-69.487714 75.886214-29.049192 32.120472-56.306803 65.904554-88.10735 95.721565-11.069406 10.493541-23.034601 18.939561-38.646942 20.987081-35.383707-5.24677-49.460408-18.939561-56.306803-53.939357-0.319925-2.367445-2.43143-4.09504-3.903085-6.398501 1.471655-9.661736 8.31805-15.804296 14.0767-23.098586 38.966867-44.085667 79.085464-87.019605 118.948122-130.465422 20.987081-23.034601 42.869952-45.237397 62.641318-68.847864 29.625057-35.639647 69.743654-57.778458 108.134656-82.284715 5.37474-3.519175 11.389331-6.718425 16.764071-10.2376 13.820761-6.3985 27.001671-14.588581 41.654237-19.259486 4.22301-1.471655 2.111505-4.670905 4.223011-6.142561 25.466031-1.471655 51.188003-0.89579 76.718019 0.639851 16.188206 0.831805 26.041896 12.797001 33.272202 24.762196 24.826181 42.294087 64.368914 55.730938 111.141951 55.155073 26.041896-1.15173 35.383707-8.765945 36.215512-29.753027-1.15173-11.389331-8.31805-19.835351-13.436851-29.497086-9.917676-17.531891-8.126095-20.731141 12.285121-23.674452 42.869952-3.45519 85.355995-7.870155 125.538577-23.866406 18.875576-7.614215 37.431227-16.060236 51.188002-31.544607l-0.25594 0.319925z" fill="#FCE7B1" p-id="6861"></path><path d="M219.340592 731.268609c-25.785956 31.224682-53.043568 37.687167-90.474795 20.731141-30.008967-13.436851-59.634023-27.129641-89.323065-40.822432-39.542732-18.427681-49.716348-48.180708-29.049191-84.972085 57.842443-102.376006 115.940826-205.135921 174.039209-307.575912 20.987081-36.791377 54.003343-47.284918 93.546075-29.433101 29.369117 13.116926 58.418308 26.489791 87.4675 40.246567 43.509802 20.155276 52.723643 49.908303 28.793252 90.474795 2.111505 6.14256-0.63985 11.389331-3.583161 16.316176a34274.654878 34274.654878 0 0 0-164.825369 288.060486c-1.471655 2.879325-4.22301 4.926845-6.590455 7.03835z" fill="#E56044" p-id="6862"></path><path d="M963.934078 500.730641c11.389331 17.787831-6.01459 22.458736-14.972491 30.648817-5.438725 4.670905-13.180911 4.99083-20.411216 4.35098-0.575865-0.25594-1.15173-1.15173-1.471655-1.15173-47.028978 3.8391-73.390799-25.082121-93.162165-59.250113-17.403921-30.072952-41.654237-40.566492-74.926439-38.774912-23.034601 1.15173-46.133188-1.79158-68.911849 3.775115-12.285121 2.94331-23.674451 7.870155-33.592127 15.484371-5.37474 4.35098-9.853691 9.341811-1.79158 15.420386 2.43143 1.79158 4.22301 3.8391 4.47895 6.718425-24.570241 16.636101-48.180708 35.063782-73.966664 49.652363-24.570241 14.012716-40.758447 35.831602-59.314098 55.411013-57.842443 61.617558-114.213231 124.642787-171.47981 187.09215-18.811591-2.623385-34.423932-12.541061-49.652362-22.202796-12.029181-7.55023-11.389331-19.195501-6.910381-30.904757 18.555651-48.756573 35.319722-98.08901 53.043568-146.781598 13.180911-36.215512 26.937686-72.431024 39.862657-108.582551 3.8391-10.813466 6.27053-22.458736 15.228431-30.648817 20.731141 4.09504 39.606717 1.15173 58.482294-9.34181 56.626728-31.544607 114.149246-60.977708 170.775974-91.626525a77.421854 77.421854 0 0 1 39.222807-9.597751c53.939358 0.575865 107.878716 0.575865 161.882059 0 18.555651 0 31.096712 6.3985 40.118597 22.138812 19.451441 33.912052 39.798672 67.440194 59.889963 101.28826 4.798875 13.692791-8.06211 14.844521-14.97249 20.411216-7.486245 6.14256-20.667156 8.44602-13.180911 23.034602 8.9579 17.851816 19.451441 24.250316 35.319722 19.579411 6.65444-2.04752 12.285121-8.19008 20.091291-5.566696l0.319925-0.575865z" fill="#F1CD9D" p-id="6863"></path><path d="M405.984847 431.306912a23625.822698 23625.822698 0 0 1-47.028977 133.664673c-18.875576 52.787628-38.071077 105.575256-57.842443 158.170928-4.47895 12.221136-0.25594 19.195501 10.49354 25.082122 14.076701 7.870155 30.264907 12.221136 42.869952 22.778661-6.27053 6.078575-7.80617 15.996251-16.76407 20.091291l-118.372257-59.506053c14.972491-39.670702 39.862657-74.158619 60.209888-111.205936 37.111302-67.376209 76.398094-133.344747 114.789097-200.209076 3.8391 3.8391 7.80617 7.29429 11.64527 11.13339z" fill="#DCAE86" p-id="6864"></path><path d="M1007.69982 801.332188c20.347231-22.458736 29.625057-23.674451 75.182379-6.142561-4.47895-28.601297 10.493541-46.964993 33.592127-59.250113 18.875576-10.237601 36.855362-2.04752 53.619433 8.190081 10.173616 4.99083 19.771366 11.069406 23.034602 22.778661 13.180911 15.164446 16.508131 31.480622 4.22301 48.692588-18.299711 25.402046-38.646942 31.288667-74.030649 20.731141 9.277826 12.541061 14.716551 24.826181 8.382035 38.518972a64.368914 64.368914 0 0 1-29.049191 29.753026c-23.034601-18.939561-51.507928-32.056487-68.591924-57.458533 2.68737-12.285121 14.716551-15.164446 22.458736-22.458736 4.22301-3.8391 11.069406-6.3985 8.701961-13.436851-3.007295-7.870155-10.813466-9.597751-17.979786-8.19008-14.972491 2.94331-26.361821 10.493541-31.160697 25.721971-1.215715 3.45519-1.79158 7.55023-6.910381 8.126096-11.965196-11.389331-11.069406-23.354526-1.471655-35.575662z" fill="#E2B073" p-id="6865"></path><path d="M397.922737 850.920565c40.438522-20.987081 66.544404-56.946653 95.593595-89.259079 31.736562-35.639647 63.537108-71.215309 96.489385-105.959166 8.06211-8.44602 19.195501-23.034601 32.952277-12.541061 15.548356 11.965196-0.319925 22.778661-7.80617 31.480622-33.912052 39.670702-68.591924 78.829524-103.399766 117.924361-17.915801 20.155276-36.471452 39.670702-55.091088 59.506054-19.515426-0.575865-39.286792 8.765945-59.058158-0.831805l0.319925-0.319926z" fill="#D4B271" p-id="6866"></path><path d="M920.488261 839.531235c19.195501-15.420386 38.966867-14.588581 59.953948-3.775115 3.263235 1.727595 5.63068 8.19008 11.38933 3.8391 10.173616-0.319925 13.756776 8.70196 18.875577 14.268656 15.868281 16.892041 36.471452 29.753027 48.500632 50.484167-5.37474 2.30346-2.68737 5.822635-1.79158 9.341811 4.798875 25.977911-6.590455 43.509802-33.912052 52.467703-30.776787-21.243021-61.425603-43.125892-84.460204-72.942904 2.751355-13.116926 15.868281-15.996251 23.994376-23.866406 5.37474-4.99083 15.868281-9.08587 10.2376-18.107756-6.3985-9.917676-17.147981-7.614215-26.425806-3.199251-7.80617 3.775115-12.605046 11.389331-20.347231 14.844521a8.44602 8.44602 0 0 1-7.486246 0c-9.917676-8.70196-2.751355-15.996251 2.047521-23.290541h-0.575865z" fill="#E2B073" p-id="6867"></path><path d="M1193.192346 766.588331a104.935406 104.935406 0 0 1-23.098587-22.778661c33.848067-11.325346 62.641318-32.056487 94.697805-46.389128 9.597751-4.09504 5.1188-9.917676 2.367446-15.740311-25.146106-56.626728-51.188003-112.933531-75.18238-170.200109-7.80617-18.619636-23.674451-34.935812-20.987081-57.138608L1312.332422 704.074982c-39.862657 20.475201-80.877044 39.094837-119.204061 62.193424v0.25594zM508.808748 912.794064c46.709053-5.50271 65.264704-44.917472 92.5863-73.582754 24.250316-25.594001 45.813263-53.619433 68.911849-80.749075 7.16632-8.510005 15.548356-10.237601 23.674451-1.79158 5.1188 5.566695 18.235726 9.341811 7.742186 21.051066-37.111302 40.246567-70.383504 83.75637-109.926236 122.211357-6.01459 5.88662-12.924971 10.877451-19.195502 16.060236-21.882871 11.709256-42.869952 8.19008-63.537108-3.19925h-0.25594z" fill="#D4B271" p-id="6868"></path><path d="M837.179786 904.987893c7.80617-9.405796 18.299711-15.548356 29.944982-14.652565 22.202796 1.727595 33.592127-7.29429 36.855362-28.025432a9.08587 9.08587 0 0 1 4.798875 7.614216c-1.15173 17.787831 8.382035 30.648817 20.411216 42.294087 1.15173 11.133391 15.868281 15.740311 14.972491 28.025431 8.9579 35.319722-7.486245 58.674248-43.125893 61.297634-23.098586-14.588581-41.974162-32.696337-52.147777-58.354323 10.493541-6.3985 22.458736-9.917676 31.736561-18.427681 3.58316-3.45519 9.277826-6.3985 5.118801-12.541061-3.32722-4.926845-8.382035-5.24677-14.076701-4.35098-16.508131 2.5594-20.411216 15.996251-25.785957 28.281371-14.076701 0-17.403921-7.870155-13.18091-19.515426 1.471655-4.09504 4.159025-7.614215 4.47895-11.965196v0.25594z" fill="#E2B073" p-id="6869"></path><path d="M631.659955 985.736968c36.855362-8.70196 54.835148-39.350777 78.189674-63.857034 20.347231-21.626931 38.966867-44.661532 58.738233-66.864328 3.58316-4.09504 7.486245-9.917676 14.716551-4.350981 9.213841 7.03835 13.756776 15.484371 8.957901 26.873702-5.438725 13.436851-17.723846 22.138811-26.681747 32.952277-15.292416 18.939561-33.592127 35.575662-50.612138 53.107553-22.202796 27.129641-50.356198 33.272202-83.308474 22.202796z" fill="#D4B271" p-id="6870"></path><path d="M928.550371 916.313239c-21.562946-12.285121-26.361821-31.544607-24.570241-54.003343a33.208217 33.208217 0 0 1 16.508131-22.778661c-1.215715 7.93414-6.590455 15.804296 0 23.674451 6.590455 9.917676 7.16632 23.674451 19.195501 30.072952 26.937686 25.338061 58.098383 46.069203 83.564414 73.198844-20.667156 8.19008-37.751152 1.471655-53.299508-11.965196-7.230305-6.3985-14.396626-12.541061-21.882871-18.619636a52.339733 52.339733 0 0 1-19.835351-19.579411h0.319925zM1059.207748 904.667968a582.071577 582.071577 0 0 1-67.376209-64.816808c-0.89579-15.164446 0-29.753027 15.868281-38.518972-4.798875 12.221136-2.43143 23.674451 3.263236 34.999797 7.80617 3.8391 14.972491 9.08587 23.994376 10.813465 21.243021 16.316176 42.869952 32.632352 63.793048 49.268453 2.111505 1.79158 2.751355 5.63068 4.223011 8.254065-14.396626 8.70196-29.049192 10.749481-43.509803 0h-0.25594z" fill="#E3904C" p-id="6871"></path><path d="M963.934078 500.730641c-5.1188 2.94331-9.853691 6.14256-14.972491 8.765946-9.277826 4.99083-19.835351 6.14256-27.897461 0a67.632149 67.632149 0 0 1-22.778662-32.376412c-1.79158-5.24677 7.230305-7.870155 11.389331-11.709256 8.382035-8.126095 24.954151-7.29429 27.001671-22.394751 6.91038 6.078575 15.548356 3.19925 23.354527 4.60692-15.868281 3.519175-15.548356 11.389331-7.806171 23.034602 5.75865 9.08587 17.083996 16.380161 11.709256 29.817011v0.25594z" fill="#F4C37F" p-id="6872"></path><path d="M758.350262 1020.1609c28.153402-16.892041 51.251988-39.350777 71.343279-65.008764 12.860986 4.670905 21.243021 13.116926 23.674451 26.553777-9.917676 4.35098-15.548356 13.436851-23.034601 20.411216-20.475201 19.835351-43.765742 26.873701-71.983129 17.787831v0.319925z" fill="#D4B271" p-id="6873"></path><path d="M853.048067 981.961853c-7.80617-8.765945-15.548356-17.787831-23.674451-26.553777-6.590455-18.107756-6.590455-34.999797 7.486245-50.164243 2.751355 10.493541-10.493541 24.506256 7.486245 31.224682 3.903085 1.15173 6.334515 2.879325 4.478951 7.294291 14.460611 21.562946 34.807842 38.199047 51.571912 58.034398-20.347231 3.519175-35.319722-5.24677-47.604842-19.835351h0.25594z" fill="#E28F4B" p-id="6874"></path><path d="M928.550371 916.313239c6.590455 6.3985 13.244896 13.116926 19.835351 19.579411l-4.47895 4.35098c-4.542935-8.44602-16.828056-12.285121-15.356401-23.930391z" fill="#EFD8C2" p-id="6875"></path><path d="M655.910271 474.75273c-6.590455 2.94331-11.389331 0.89579-14.716551-5.24677-2.68737-5.24677 1.855565-8.19008 4.798875-11.389331 15.036476-15.996251 34.807842-23.354526 55.730939-24.762196 28.153402-2.04752 56.306803-1.471655 84.524189-0.319925 23.354526 0.89579 37.431227 15.484371 47.668828 34.999796 10.749481 20.731141 27.513552 37.111302 45.237397 52.531688 13.756776 12.285121 33.272202 8.510005 49.140483 15.484371-32.952277 4.09504-61.745528-7.614215-89.89893-22.202796a45.493337 45.493337 0 0 1-20.411216-22.394751c-13.436851-26.297836-32.632352-41.526267-65.264704-36.535437-16.188206 2.367445-33.272202 0-50.036272 0-16.188206 5.566695-29.113177 17.787831-46.773038 20.155276v-0.319925z" fill="#DCAE86" p-id="6876"></path><path d="M655.910271 474.75273c15.612341-7.03835 28.153402-20.155276 46.709053-20.155276-10.749481 14.332641-28.153402 17.275951-43.701758 23.674451-1.215715-1.15173-2.111505-2.623385-3.32722-3.8391l0.319925 0.319925z" fill="#F9EEE0" p-id="6877"></path><path d="M1034.637507 847.14545c-13.180911 7.614215-18.555651-1.727595-23.994376-10.813465 1.53564-23.674451 21.307006-41.142357 42.869952-38.774912 9.597751 1.15173 16.508131 6.3985 19.195501 14.268655 2.367445 7.03835-5.75865 10.493541-10.493541 14.588581-8.9579 7.29429-18.555651 14.076701-27.513551 21.051066v-0.319925z" fill="#F4C37F" p-id="6878"></path><path d="M1098.75048 776.250066c-2.04752-17.275951 13.500836-20.731141 22.778662-28.601296 8.126095-6.718425 18.555651-6.14256 27.897461-1.79158 13.756776 6.718425 14.716551 15.164446 2.68737 24.506256-8.70196 6.718425-17.979786 12.860986-27.001671 19.323471-4.47895 3.19925-8.06211 9.917676-14.972491 4.926845-6.27053-4.35098-12.541061-9.597751-11.389331-18.363696zM939.939702 893.278638c-20.347231-1.79158-20.027306-15.804296-19.195501-30.072952 6.01459-4.99083 11.709256-10.237601 17.723846-15.164446a33.016262 33.016262 0 0 1 23.674451-8.19008c9.853691 0.63985 16.444146 6.14256 20.091291 13.692791 3.263235 7.614215-5.1188 10.877451-9.917676 14.908505-10.493541 8.765945-21.562946 16.636101-32.376411 25.082122v-0.25594z" fill="#F4C380" p-id="6879"></path><path d="M849.144982 943.762806c-1.471655-2.367445-2.94331-4.99083-4.478951-7.294291-2.68737-19.003546 9.597751-27.449567 25.210092-33.272202 10.173616-3.8391 17.915801 1.15173 23.354526 8.765946 6.846395 9.597751-3.903085 11.645271-8.9579 15.164446-10.557526 7.55023-19.195501 19.515426-35.383707 16.636101h0.25594z" fill="#F4C480" p-id="6880"></path><path d="M805.699164 34.983801l-15.228431 132.193017c-3.007295 23.034601-44.341607 23.034601-47.092962 0L728.14934 34.983801c-2.94331-46.389128 80.621104-46.389128 77.933734 0h-0.319925zM1049.609998 128.657846L926.502851 214.717676c-21.882871 14.908506-51.251988-8.765945-33.912052-26.873702l101.288261-103.527736c37.175287-34.743857 97.385175 12.797001 55.730938 44.341608zM542.016965 83.996313l101.28826 103.655706c17.723846 18.299711-12.285121 41.654237-33.848067 26.809717L486.286027 128.337921c-41.334312-31.480622 18.555651-79.341404 55.730938-44.341608z" fill="#F2DA28" p-id="6881"></path></svg>