<?xml version="1.0" encoding="utf-8"?>
<!-- Generator: Adobe Illustrator 24.3.0, SVG Export Plug-In . SVG Version: 6.00 Build 0)  -->
<svg version="1.1" id="Layer_1" xmlns="http://www.w3.org/2000/svg" xmlns:xlink="http://www.w3.org/1999/xlink" x="0px" y="0px"
	 viewBox="0 0 332.5 103.3" style="enable-background:new 0 0 332.5 103.3;" xml:space="preserve">
<style type="text/css">
	.st0{fill:#42B9E8;}
	.st1{fill:#87A7C8;}
	.st2{fill:#167ABE;}
	.st3{fill:#47C6EC;}
	.st4{fill:url(#SVGID_1_);}
	.st5{fill:#BED3ED;}
	.st6{clip-path:url(#SVGID_3_);fill:url(#SVGID_4_);}
</style>
<g>
	<g>
		<g>
			<path class="st0" d="M246.7,63.8h-17.3l8.6-21L246.7,63.8z M235.9,35.5l-18.1,43.7h5.4l4.4-10.7h21.2l4.4,10.7h5.3l-18.1-43.7
				H235.9z"/>
			<polygon class="st0" points="296.4,35.5 296.4,40.3 311,40.3 311,79.2 316,79.2 316,40.3 330.6,40.3 330.6,35.5 			"/>
			<polygon class="st0" points="193.5,59.4 211.8,59.4 211.8,54.4 193.5,54.4 190.8,54.4 188.5,54.4 188.5,74.4 188.5,79.2 
				193.5,79.2 214.8,79.2 214.8,74.4 193.5,74.4 			"/>
			<rect x="188.5" y="35.5" class="st0" width="26.3" height="4.8"/>
			<g>
				<path class="st0" d="M175.4,53.9c-9.9,0.2-17.7,2-23.5,5.2V35.5h-5v43.7h5V65.7c3.6-2.8,10.5-5.9,23.5-6.2v19.7h5V35.5h-5V53.9z
					"/>
				<path class="st0" d="M284.6,63.1c-0.2-0.2-0.2-0.5-0.2-0.6c0-0.1,0.1-0.3,0.4-0.5c5.2-2.1,8.2-6.7,8.2-12.7
					c0-8.4-5.8-13.9-14.8-13.9H262v43.7h5V40.3h11c6.3,0,10.1,3.4,10.1,9c0,5.7-3.8,9.1-10.1,9.1h-4.8v4.7l0.6,0.1
					c1.7,0.2,3.3,0.7,4.7,1.4c6.1,3,8.8,9.1,10.4,14l0.1,0.4h5.2l-0.2-0.8C292.9,74.7,290.3,67.8,284.6,63.1"/>
			</g>
		</g>
		<rect x="95.9" y="49" class="st1" width="4.9" height="30.1"/>
		<g>
			<path class="st1" d="M110.8,49h4l0.5,4.4c2.6-3.6,6.6-5.2,10.6-5.2c8,0,12.8,5.5,12.8,14.1v16.8h-4.9V62.8c0-6.1-3.2-9.9-8.5-9.9
				c-5.6,0-9.6,4.4-9.6,11v15.2h-4.9V49z"/>
		</g>
		<rect x="95.8" y="35.3" class="st2" width="5" height="5"/>
	</g>
	<g>
		<path class="st3" d="M27.2,84.5c1.2-3.1,3.6-7.5,9-12c11.8-10,17.7-15.2,20.3-19.2c2-3.2,6.1-9.9,4.5-18
			c-0.3-1.3-1.7-8.7-7.8-11.8c-0.2-0.1-0.4-0.2-0.7-0.3c0,0,0,0,0,0c0,0,0,0,0,0c-1.7-0.7-4-1.3-7.4-1c-8.3,0.7-18.9,5.8-26.4,15.2
			C10,48.1,4.2,61,10.7,77.7c3.2,5.6,7.1,10.7,11.6,15c0.1,0.1,0.1,0.1,0.2,0.2c1.7,1.7,3.3,3.2,5.2,4.4c0.9,0.6,1.7,1.1,2.6,1.6
			C27.6,96.2,24.6,91.4,27.2,84.5z"/>
		<linearGradient id="SVGID_1_" gradientUnits="userSpaceOnUse" x1="76.6524" y1="24.4042" x2="27.3762" y2="99.4557">
			<stop  offset="0" style="stop-color:#BED3ED"/>
			<stop  offset="0.1338" style="stop-color:#B8CDE9"/>
			<stop  offset="0.3205" style="stop-color:#A6BADD"/>
			<stop  offset="0.5384" style="stop-color:#899DC9"/>
			<stop  offset="0.7778" style="stop-color:#6174AD"/>
			<stop  offset="1" style="stop-color:#35478F"/>
		</linearGradient>
		<path class="st4" d="M81.6,28.1c-1.5-0.6-3.1-1.2-4.7-1.7c-1.6-0.5-3.3-1-4.9-1.4c-5.4-1.3-11.1-2-17-2c-1.3,0-1.4,0-2.6,0.1
			c0.2,0.1,0.4,0.2,0.7,0.3c6.1,3.2,7.6,10.5,7.8,11.8c1.6,8-2.5,14.8-4.5,18c-2.5,4-8.5,9.2-20.3,19.2c-5.3,4.5-7.8,8.9-9,12
			c-2.6,6.9,0.4,11.7,3,14.4c2.9,1.7,5.5,2.7,8.6,2.6c5.5,0.1,11.4-3,16.5-8.1c2.1-2,4-4.4,5.8-7c2.8-4.1,5.1-8.9,6.9-14.2
			c1.4-4.1,2.2-8.1,2.7-12c0-0.1,0-0.3,0-0.4c0.8-7.6,0-14.6-2.2-20.1c-0.5-1.2-1.1-2.3-1.7-3.4c0.9,0.1,7.7,0.6,12.9,3
			c1-3.5,1.9-6.6,2.5-10.2c0-0.2,0.1-0.4,0.1-0.6C82.1,28.3,81.9,28.2,81.6,28.1z"/>
		<path class="st5" d="M18.6,37.3c7.5-9.4,18-14.5,26.4-15.2c3.4-0.3,5.7,0.3,7.4,1c0.5-2.1,3.1-3.8,5.8-4.7
			c3.7-1.3,9.2-1.3,14.7-0.7c0.1-2,0.2-4,0.2-6c0-0.6,0-1.2,0-1.7c-5.7-1.5-11.8-2.3-18-2.3c-0.6,0-1.1,0-1.7,0
			c-10.5,0.2-20.5,2.8-29.4,7.1c-1.2-1.7-4.2-5.7-7.2-12.8C13,3.5,9.3,5.1,6,7.4c0.5,2.6,1.5,6.8,2.2,9.4c0.4,1.7,1,3.4,1.2,5.2
			c0.5,3.9-0.8,6.4-1.1,6.9c-2.4,4.2-4.6,9.5-5.2,15.9c-1,11.3,1.9,22.9,7.6,33C4.2,61,10,48.1,18.6,37.3z"/>
		<path class="st3" d="M52.4,23.1C52.4,23.1,52.4,23.1,52.4,23.1C52.3,23.1,52.3,23.1,52.4,23.1C52.4,23.1,52.4,23.1,52.4,23.1z"/>
		<g>
			<defs>
				<path id="SVGID_2_" d="M27.2,84.5c1.2-3.1,3.6-7.5,9-12c11.8-10,17.7-15.2,20.3-19.2c2-3.2,6.1-9.9,4.5-18
					c-0.3-1.3-1.7-8.7-7.8-11.8c-0.2-0.1-0.4-0.2-0.7-0.3c0,0,0,0,0,0c0,0,0,0,0,0c-1.7-0.7-4-1.3-7.4-1
					c-8.3,0.7-18.9,5.8-26.4,15.2C10,48.1,4.2,61,10.7,77.7c3.2,5.6,7.1,10.7,11.6,15c0.1,0.1,0.1,0.1,0.2,0.2
					c1.7,1.7,3.3,3.2,5.2,4.4c0.9,0.6,1.7,1.1,2.6,1.6C27.6,96.2,24.6,91.4,27.2,84.5z"/>
			</defs>
			<clipPath id="SVGID_3_">
				<use xlink:href="#SVGID_2_"  style="overflow:visible;"/>
			</clipPath>
			
				<radialGradient id="SVGID_4_" cx="1244.2124" cy="-2861.6765" r="115.9538" gradientTransform="matrix(0.4945 -0.4057 0.6343 0.7731 1265.8517 2749.4153)" gradientUnits="userSpaceOnUse">
				<stop  offset="0" style="stop-color:#167ABE"/>
				<stop  offset="0.1385" style="stop-color:#197FC2"/>
				<stop  offset="0.3024" style="stop-color:#238DCC"/>
				<stop  offset="0.4788" style="stop-color:#34A5DE"/>
				<stop  offset="0.4909" style="stop-color:#35A7DF"/>
				<stop  offset="0.6649" style="stop-color:#47C6EC"/>
				<stop  offset="0.8207" style="stop-color:#47C6EC"/>
				<stop  offset="0.895" style="stop-color:#41BCE8"/>
				<stop  offset="1" style="stop-color:#35A7DF"/>
			</radialGradient>
			<path class="st6" d="M123.4-14.8c40.6,49.5,47.9,110.7,16.2,136.7S49.4,128.8,8.7,79.3S-39.1-31.4-7.5-57.4S82.8-64.3,123.4-14.8
				z"/>
		</g>
	</g>
</g>
</svg>
