<svg width="2044" height="1238" xmlns="http://www.w3.org/2000/svg" xmlns:xlink="http://www.w3.org/1999/xlink" xml:space="preserve" overflow="hidden"><defs><clipPath id="clip0"><rect x="1190" y="960" width="1753" height="508"/></clipPath><clipPath id="clip1"><rect x="1190" y="960" width="1753" height="508"/></clipPath><clipPath id="clip2"><rect x="1190" y="960" width="1753" height="508"/></clipPath></defs><g transform="translate(-1058 -595)"><g><rect x="1059" y="597" width="2042" height="1234" fill="#FFFFFF" fill-opacity="1"/><g clip-path="url(#clip0)"><g clip-path="url(#clip1)"><g clip-path="url(#clip2)"><path d="M1709.83 484.376C1684.27 509.458 1652.87 521.999 1615.63 521.999 1596.93 521.999 1578.68 517.901 1560.9 509.71 1543.11 501.52 1528.46 490.482 1516.93 476.601 1496.89 452.524 1486.87 421.34 1486.87 383.047L1487.5 234.677 1579.85 234.677 1580.56 379.535C1580.56 412.812 1592.5 429.449 1616.39 429.449 1626.57 429.449 1635.21 425.98 1642.31 419.04 1649.41 412.103 1652.96 403.701 1652.96 393.832 1652.96 383.635 1649.62 375.063 1642.94 368.123 1636.26 361.186 1628.07 357.715 1618.39 357.715 1611.54 357.715 1603.69 360.725 1594.84 366.744L1594.84 263.406C1605.86 262.403 1614.21 261.903 1619.89 261.903 1655.13 261.903 1685.32 274.611 1710.45 300.026 1735.59 325.445 1748.15 356.044 1748.15 391.826 1748.15 428.445 1735.38 459.296 1709.83 484.376ZM1344.08 401.105C1344.08 387.898 1340.86 377.363 1334.44 369.503 1328.01 361.645 1319.36 357.715 1308.51 357.715 1298.65 357.715 1290.14 361.312 1282.96 368.5 1275.77 375.69 1272.19 384.218 1272.19 394.082 1272.19 404.452 1275.44 412.98 1281.95 419.667 1288.47 426.356 1296.74 429.699 1306.76 429.699 1314.94 429.699 1322.54 427.527 1329.55 423.177L1329.55 520.245C1321.87 521.581 1314.86 522.251 1308.51 522.251 1270.93 522.251 1239.62 509.878 1214.57 485.129 1189.52 460.384 1176.99 429.366 1176.99 392.076 1176.99 355.794 1189.64 325.025 1214.94 299.776 1240.25 274.529 1271.02 261.903 1307.26 261.903 1347.67 261.903 1379.53 273.734 1402.83 297.393 1426.12 321.056 1437.77 353.367 1437.77 394.332L1437.77 516.983 1344.08 516.983 1344.08 401.105ZM1049.73 484.502C1029.02 462.85 1018.67 432.796 1018.67 394.332L1018.67 174.619 1120.38 174.619 1120.38 378.031C1120.38 393.919 1122.92 404.491 1128.02 409.759 1133.11 415.025 1143.17 417.661 1158.2 417.661L1163.46 417.661 1163.46 516.983 1136.41 516.983C1099.33 516.983 1070.44 506.159 1049.73 484.502ZM787.698 3.43425 940.261 3.43425 940.261 516.983 787.698 516.983 787.698 3.43425ZM719.31 516.983 566.75 516.983 566.75 3.43425 719.31 3.43425 719.31 187.033 761.772 187.033 761.772 322.475 719.31 322.475 719.31 516.983ZM226.307 519.992C217.035 519.992 201.881 519.487 180.84 518.489 180.84 518.489 180.86 465.035 180.847 398.469 212.538 415.877 251.997 430.286 285.405 421.52 326.612 403.315 329.777 387.413 334.959 293.465 336.32 259.632 313.701 203.289 300.139 187.534 321.114 179.736 316.13 181.058 332.95 176.136 333.499 161.019 329.525 154.006 326.254 147.308 309.186 144.691 301.663 148.823 279.379 149.989 255.353 131.849 245.948 104.595 277.371 91.6595 282.779 77.4703 264.736 66.1024 255.943 64.8421 230.487 73.1224 192.942 121.741 184.292 122.501 162.514 110.784 190.146 91.7376 162.865 83.6134 152.202 86.3429 162.512 83.3563 145.455 86.9673 146.279 140.538 89.2996 222.076 85.8585 253.237 76.676 297.776 106.581 344.742 131.392 365.201 137.218 370.006 145.733 376.475 156.038 383.364 156.038 455.745 156.038 516.983 156.038 516.983L3.47786 516.983 3.47786 3.43425 202.258 3.43425C289.436 3.43425 357.694 23.2523 407.05 62.8793 465.669 110.284 494.979 174.619 494.979 255.884 494.979 333.639 469.925 397.096 419.825 446.253 369.719 495.416 305.216 519.992 226.307 519.992Z" fill="#000000" fill-rule="evenodd" fill-opacity="1" transform="matrix(1.00017 0 0 1 1190 960.408)"/></g></g></g></g></g></svg>